<svg width="168" height="24" viewBox="0 0 168 24" fill="none" xmlns="http://www.w3.org/2000/svg">
<g clip-path="url(#clip0_2_8)">
<path fill-rule="evenodd" clip-rule="evenodd" d="M12.2424 18.6667C11.3297 18.6667 10.5348 17.2795 10.1212 15.23C9.70767 17.2795 8.91273 18.6667 8 18.6667C7.08727 18.6667 6.29233 17.2795 5.8788 15.23C5.46523 17.2795 4.6703 18.6667 3.75757 18.6667C2.4187 18.6667 1.33333 15.6819 1.33333 12C1.33333 8.3181 2.4187 5.33333 3.75757 5.33333C4.6703 5.33333 5.46523 6.72048 5.8788 8.77C6.29233 6.72048 7.08727 5.33333 8 5.33333C8.91273 5.33333 9.70767 6.72048 10.1212 8.77C10.5348 6.72048 11.3297 5.33333 12.2424 5.33333C13.5813 5.33333 14.6667 8.3181 14.6667 12C14.6667 15.6819 13.5813 18.6667 12.2424 18.6667Z" fill="#121417"/>
</g>
<path d="M44.6882 9.99219H41.8885C41.8374 9.62997 41.733 9.30824 41.5753 9.02699C41.4176 8.74148 41.2152 8.49858 40.968 8.2983C40.7209 8.09801 40.4354 7.9446 40.1115 7.83807C39.7919 7.73153 39.4446 7.67827 39.0696 7.67827C38.392 7.67827 37.8018 7.84659 37.299 8.18324C36.7962 8.51562 36.4063 9.00142 36.1293 9.64062C35.8523 10.2756 35.7138 11.0469 35.7138 11.9545C35.7138 12.8878 35.8523 13.6719 36.1293 14.3068C36.4105 14.9418 36.8026 15.4212 37.3054 15.745C37.8082 16.0689 38.3899 16.2308 39.0504 16.2308C39.4212 16.2308 39.7642 16.1818 40.0795 16.0838C40.3991 15.9858 40.6825 15.843 40.9297 15.6555C41.1768 15.4638 41.3814 15.2315 41.5433 14.9588C41.7095 14.6861 41.8246 14.375 41.8885 14.0256L44.6882 14.0384C44.6158 14.6392 44.4347 15.2188 44.1449 15.777C43.8594 16.331 43.4737 16.8274 42.9879 17.2663C42.5064 17.701 41.9311 18.0462 41.2621 18.3018C40.5973 18.5533 39.8452 18.679 39.0057 18.679C37.8381 18.679 36.794 18.4148 35.8736 17.8864C34.9574 17.358 34.233 16.593 33.7003 15.5916C33.1719 14.5902 32.9077 13.3778 32.9077 11.9545C32.9077 10.527 33.1761 9.3125 33.7131 8.31108C34.25 7.30966 34.9787 6.54687 35.8991 6.02273C36.8196 5.49432 37.8551 5.23011 39.0057 5.23011C39.7642 5.23011 40.4673 5.33665 41.1151 5.54972C41.767 5.76278 42.3445 6.07386 42.8473 6.48295C43.3501 6.88778 43.7592 7.38423 44.0746 7.9723C44.3942 8.56037 44.5987 9.23366 44.6882 9.99219ZM49.4215 18.6854C48.7951 18.6854 48.2369 18.5767 47.7468 18.3594C47.2567 18.1378 46.869 17.8118 46.5835 17.3814C46.3022 16.9467 46.1616 16.4055 46.1616 15.7578C46.1616 15.2124 46.2617 14.7543 46.462 14.3835C46.6623 14.0128 46.935 13.7145 47.2802 13.4886C47.6254 13.2628 48.0174 13.0923 48.4563 12.9773C48.8995 12.8622 49.364 12.7812 49.8498 12.7344C50.4208 12.6747 50.881 12.6193 51.2305 12.5682C51.5799 12.5128 51.8335 12.4318 51.9911 12.3253C52.1488 12.2187 52.2276 12.0611 52.2276 11.8523V11.8139C52.2276 11.4091 52.0998 11.0959 51.8441 10.8743C51.5927 10.6527 51.2347 10.5419 50.7702 10.5419C50.2802 10.5419 49.8903 10.6506 49.6005 10.8679C49.3107 11.081 49.119 11.3494 49.0252 11.6733L46.5067 11.4688C46.6346 10.8722 46.886 10.3565 47.261 9.92188C47.636 9.48295 48.1197 9.14631 48.712 8.91193C49.3086 8.6733 49.9989 8.55398 50.783 8.55398C51.3285 8.55398 51.8505 8.6179 52.3491 8.74574C52.8519 8.87358 53.2972 9.07173 53.685 9.3402C54.0771 9.60866 54.386 9.95384 54.6119 10.3757C54.8377 10.7933 54.9506 11.294 54.9506 11.8778V18.5H52.3683V17.1385H52.2915C52.1339 17.4453 51.9229 17.7159 51.6587 17.9503C51.3945 18.1804 51.0771 18.3615 50.7063 18.4936C50.3356 18.6214 49.9073 18.6854 49.4215 18.6854ZM50.2013 16.8061C50.6019 16.8061 50.9556 16.7273 51.2624 16.5696C51.5692 16.4077 51.81 16.1903 51.9847 15.9176C52.1594 15.6449 52.2468 15.3359 52.2468 14.9908V13.9489C52.1616 14.0043 52.0444 14.0554 51.8952 14.1023C51.7504 14.1449 51.5863 14.1854 51.4031 14.2237C51.2198 14.2578 51.0366 14.2898 50.8533 14.3196C50.6701 14.3452 50.5039 14.3686 50.3548 14.3899C50.0352 14.4368 49.756 14.5114 49.5174 14.6136C49.2788 14.7159 49.0934 14.8544 48.9613 15.0291C48.8292 15.1996 48.7631 15.4126 48.7631 15.6683C48.7631 16.0391 48.8974 16.3224 49.1658 16.5185C49.4386 16.7102 49.7837 16.8061 50.2013 16.8061ZM57.0632 18.5V8.68182H59.7031V10.3949H59.8054C59.9844 9.78551 60.2848 9.32528 60.7067 9.0142C61.1286 8.69886 61.6143 8.54119 62.1641 8.54119C62.3004 8.54119 62.4474 8.54972 62.6051 8.56676C62.7628 8.58381 62.9013 8.60724 63.0206 8.63707V11.0533C62.8928 11.0149 62.7159 10.9808 62.4901 10.951C62.2642 10.9212 62.0575 10.9062 61.87 10.9062C61.4695 10.9062 61.1115 10.9936 60.7962 11.1683C60.4851 11.3388 60.2379 11.5774 60.0547 11.8842C59.8757 12.1911 59.7862 12.5447 59.7862 12.9453V18.5H57.0632ZM68.4458 18.6918C67.4359 18.6918 66.5666 18.4872 65.8379 18.0781C65.1135 17.6648 64.5552 17.081 64.1632 16.3267C63.7711 15.5682 63.5751 14.6712 63.5751 13.6357C63.5751 12.6257 63.7711 11.7393 64.1632 10.9766C64.5552 10.2138 65.1071 9.61932 65.8187 9.19318C66.5346 8.76705 67.3741 8.55398 68.3372 8.55398C68.9849 8.55398 69.5879 8.65838 70.1461 8.86719C70.7086 9.07173 71.1987 9.38068 71.6163 9.79403C72.0382 10.2074 72.3663 10.7273 72.6007 11.3537C72.8351 11.9759 72.9522 12.7045 72.9522 13.5398V14.2876H64.6618V12.6001H70.389C70.389 12.2081 70.3038 11.8608 70.1333 11.5582C69.9629 11.2557 69.7264 11.0192 69.4238 10.8487C69.1255 10.674 68.7782 10.5866 68.3819 10.5866C67.9686 10.5866 67.6021 10.6825 67.2825 10.8743C66.9672 11.0618 66.72 11.3153 66.541 11.6349C66.362 11.9503 66.2704 12.3018 66.2662 12.6896V14.294C66.2662 14.7798 66.3556 15.1996 66.5346 15.5533C66.7179 15.907 66.9757 16.1797 67.3081 16.3714C67.6404 16.5632 68.0346 16.6591 68.4906 16.6591C68.7931 16.6591 69.0701 16.6165 69.3216 16.5312C69.573 16.446 69.7882 16.3182 69.9672 16.1477C70.1461 15.9773 70.2825 15.7685 70.3762 15.5213L72.8947 15.6875C72.7669 16.2926 72.5048 16.821 72.1085 17.2727C71.7164 17.7202 71.2093 18.0696 70.5872 18.321C69.9693 18.5682 69.2555 18.6918 68.4458 18.6918ZM79.2037 18.6918C78.1937 18.6918 77.3244 18.4872 76.5957 18.0781C75.8713 17.6648 75.313 17.081 74.921 16.3267C74.5289 15.5682 74.3329 14.6712 74.3329 13.6357C74.3329 12.6257 74.5289 11.7393 74.921 10.9766C75.313 10.2138 75.8649 9.61932 76.5765 9.19318C77.2924 8.76705 78.1319 8.55398 79.095 8.55398C79.7427 8.55398 80.3457 8.65838 80.9039 8.86719C81.4664 9.07173 81.9565 9.38068 82.3741 9.79403C82.796 10.2074 83.1241 10.7273 83.3585 11.3537C83.5929 11.9759 83.7101 12.7045 83.7101 13.5398V14.2876H75.4196V12.6001H81.1468C81.1468 12.2081 81.0616 11.8608 80.8912 11.5582C80.7207 11.2557 80.4842 11.0192 80.1816 10.8487C79.8833 10.674 79.536 10.5866 79.1397 10.5866C78.7264 10.5866 78.3599 10.6825 78.0403 10.8743C77.725 11.0618 77.4778 11.3153 77.2988 11.6349C77.1199 11.9503 77.0282 12.3018 77.024 12.6896V14.294C77.024 14.7798 77.1135 15.1996 77.2924 15.5533C77.4757 15.907 77.7335 16.1797 78.0659 16.3714C78.3983 16.5632 78.7924 16.6591 79.2484 16.6591C79.551 16.6591 79.8279 16.6165 80.0794 16.5312C80.3308 16.446 80.546 16.3182 80.725 16.1477C80.9039 15.9773 81.0403 15.7685 81.1341 15.5213L83.6525 15.6875C83.5247 16.2926 83.2626 16.821 82.8663 17.2727C82.4743 17.7202 81.9672 18.0696 81.345 18.321C80.7271 18.5682 80.0133 18.6918 79.2037 18.6918ZM85.487 18.5V8.68182H88.127V10.3949H88.2292C88.4082 9.78551 88.7086 9.32528 89.1305 9.0142C89.5524 8.69886 90.0382 8.54119 90.5879 8.54119C90.7243 8.54119 90.8713 8.54972 91.0289 8.56676C91.1866 8.58381 91.3251 8.60724 91.4444 8.63707V11.0533C91.3166 11.0149 91.1397 10.9808 90.9139 10.951C90.688 10.9212 90.4814 10.9062 90.2939 10.9062C89.8933 10.9062 89.5353 10.9936 89.22 11.1683C88.9089 11.3388 88.6618 11.5774 88.4785 11.8842C88.2995 12.1911 88.21 12.5447 88.21 12.9453V18.5H85.487ZM104.454 9.99219H101.654C101.603 9.62997 101.499 9.30824 101.341 9.02699C101.183 8.74148 100.981 8.49858 100.734 8.2983C100.487 8.09801 100.201 7.9446 99.8771 7.83807C99.5575 7.73153 99.2102 7.67827 98.8352 7.67827C98.1577 7.67827 97.5675 7.84659 97.0646 8.18324C96.5618 8.51562 96.1719 9.00142 95.8949 9.64062C95.6179 10.2756 95.4794 11.0469 95.4794 11.9545C95.4794 12.8878 95.6179 13.6719 95.8949 14.3068C96.1761 14.9418 96.5682 15.4212 97.071 15.745C97.5739 16.0689 98.1555 16.2308 98.8161 16.2308C99.1868 16.2308 99.5298 16.1818 99.8452 16.0838C100.165 15.9858 100.448 15.843 100.695 15.6555C100.942 15.4638 101.147 15.2315 101.309 14.9588C101.475 14.6861 101.59 14.375 101.654 14.0256L104.454 14.0384C104.381 14.6392 104.2 15.2188 103.911 15.777C103.625 16.331 103.239 16.8274 102.754 17.2663C102.272 17.701 101.697 18.0462 101.028 18.3018C100.363 18.5533 99.6108 18.679 98.7713 18.679C97.6037 18.679 96.5597 18.4148 95.6392 17.8864C94.723 17.358 93.9986 16.593 93.4659 15.5916C92.9375 14.5902 92.6733 13.3778 92.6733 11.9545C92.6733 10.527 92.9418 9.3125 93.4787 8.31108C94.0156 7.30966 94.7443 6.54687 95.6648 6.02273C96.5852 5.49432 97.6207 5.23011 98.7713 5.23011C99.5298 5.23011 100.233 5.33665 100.881 5.54972C101.533 5.76278 102.11 6.07386 102.613 6.48295C103.116 6.88778 103.525 7.38423 103.84 7.9723C104.16 8.56037 104.364 9.23366 104.454 9.99219ZM110.824 18.6918C109.831 18.6918 108.972 18.4808 108.248 18.0589C107.527 17.6328 106.971 17.0405 106.579 16.282C106.187 15.5192 105.991 14.6349 105.991 13.6293C105.991 12.6151 106.187 11.7287 106.579 10.9702C106.971 10.2074 107.527 9.61506 108.248 9.19318C108.972 8.76705 109.831 8.55398 110.824 8.55398C111.816 8.55398 112.673 8.76705 113.393 9.19318C114.118 9.61506 114.676 10.2074 115.068 10.9702C115.46 11.7287 115.656 12.6151 115.656 13.6293C115.656 14.6349 115.46 15.5192 115.068 16.282C114.676 17.0405 114.118 17.6328 113.393 18.0589C112.673 18.4808 111.816 18.6918 110.824 18.6918ZM110.836 16.5824C111.288 16.5824 111.665 16.4545 111.968 16.1989C112.27 15.9389 112.498 15.5852 112.652 15.1378C112.809 14.6903 112.888 14.1811 112.888 13.6101C112.888 13.0391 112.809 12.5298 112.652 12.0824C112.498 11.6349 112.27 11.2812 111.968 11.0213C111.665 10.7614 111.288 10.6314 110.836 10.6314C110.38 10.6314 109.997 10.7614 109.686 11.0213C109.379 11.2812 109.147 11.6349 108.989 12.0824C108.836 12.5298 108.759 13.0391 108.759 13.6101C108.759 14.1811 108.836 14.6903 108.989 15.1378C109.147 15.5852 109.379 15.9389 109.686 16.1989C109.997 16.4545 110.38 16.5824 110.836 16.5824ZM120.15 12.8239V18.5H117.426V8.68182H120.022V10.4141H120.137C120.354 9.84304 120.718 9.39133 121.23 9.05895C121.741 8.7223 122.361 8.55398 123.09 8.55398C123.772 8.55398 124.366 8.70312 124.873 9.00142C125.38 9.29972 125.775 9.72585 126.056 10.2798C126.337 10.8295 126.478 11.4858 126.478 12.2486V18.5H123.755V12.7344C123.759 12.1335 123.605 11.6648 123.294 11.3281C122.983 10.9872 122.555 10.8168 122.01 10.8168C121.643 10.8168 121.319 10.8956 121.038 11.0533C120.761 11.2109 120.544 11.4411 120.386 11.7436C120.233 12.0419 120.154 12.402 120.15 12.8239ZM131.347 12.8239V18.5H128.624V8.68182H131.219V10.4141H131.334C131.551 9.84304 131.916 9.39133 132.427 9.05895C132.938 8.7223 133.558 8.55398 134.287 8.55398C134.969 8.55398 135.563 8.70312 136.07 9.00142C136.578 9.29972 136.972 9.72585 137.253 10.2798C137.534 10.8295 137.675 11.4858 137.675 12.2486V18.5H134.952V12.7344C134.956 12.1335 134.803 11.6648 134.492 11.3281C134.181 10.9872 133.752 10.8168 133.207 10.8168C132.84 10.8168 132.517 10.8956 132.235 11.0533C131.958 11.2109 131.741 11.4411 131.583 11.7436C131.43 12.0419 131.351 12.402 131.347 12.8239ZM144.295 18.6918C143.286 18.6918 142.416 18.4872 141.688 18.0781C140.963 17.6648 140.405 17.081 140.013 16.3267C139.621 15.5682 139.425 14.6712 139.425 13.6357C139.425 12.6257 139.621 11.7393 140.013 10.9766C140.405 10.2138 140.957 9.61932 141.668 9.19318C142.384 8.76705 143.224 8.55398 144.187 8.55398C144.835 8.55398 145.438 8.65838 145.996 8.86719C146.558 9.07173 147.048 9.38068 147.466 9.79403C147.888 10.2074 148.216 10.7273 148.45 11.3537C148.685 11.9759 148.802 12.7045 148.802 13.5398V14.2876H140.511V12.6001H146.239C146.239 12.2081 146.153 11.8608 145.983 11.5582C145.813 11.2557 145.576 11.0192 145.273 10.8487C144.975 10.674 144.628 10.5866 144.232 10.5866C143.818 10.5866 143.452 10.6825 143.132 10.8743C142.817 11.0618 142.57 11.3153 142.391 11.6349C142.212 11.9503 142.12 12.3018 142.116 12.6896V14.294C142.116 14.7798 142.205 15.1996 142.384 15.5533C142.567 15.907 142.825 16.1797 143.158 16.3714C143.49 16.5632 143.884 16.6591 144.34 16.6591C144.643 16.6591 144.92 16.6165 145.171 16.5312C145.423 16.446 145.638 16.3182 145.817 16.1477C145.996 15.9773 146.132 15.7685 146.226 15.5213L148.744 15.6875C148.616 16.2926 148.354 16.821 147.958 17.2727C147.566 17.7202 147.059 18.0696 146.437 18.321C145.819 18.5682 145.105 18.6918 144.295 18.6918ZM155.015 18.6918C154.009 18.6918 153.144 18.4787 152.42 18.0526C151.7 17.6222 151.146 17.0256 150.758 16.2628C150.374 15.5 150.183 14.6222 150.183 13.6293C150.183 12.6236 150.376 11.7415 150.764 10.983C151.156 10.2202 151.712 9.62571 152.433 9.19957C153.153 8.76918 154.009 8.55398 155.002 8.55398C155.859 8.55398 156.609 8.70952 157.252 9.0206C157.896 9.33168 158.405 9.76847 158.78 10.331C159.155 10.8935 159.362 11.554 159.4 12.3125H156.83C156.758 11.8224 156.566 11.4283 156.255 11.13C155.948 10.8274 155.545 10.6761 155.047 10.6761C154.625 10.6761 154.256 10.7912 153.941 11.0213C153.63 11.2472 153.387 11.5774 153.212 12.0121C153.038 12.4467 152.95 12.973 152.95 13.5909C152.95 14.2173 153.036 14.75 153.206 15.1889C153.381 15.6278 153.626 15.9624 153.941 16.1925C154.256 16.4226 154.625 16.5376 155.047 16.5376C155.358 16.5376 155.637 16.4737 155.884 16.3459C156.136 16.218 156.342 16.0327 156.504 15.7898C156.67 15.5426 156.779 15.2464 156.83 14.9013H159.4C159.357 15.6513 159.153 16.3118 158.786 16.8828C158.424 17.4496 157.923 17.8928 157.284 18.2124C156.645 18.532 155.888 18.6918 155.015 18.6918ZM166.366 8.68182V10.7273H160.453V8.68182H166.366ZM161.795 6.32955H164.518V15.483C164.518 15.7344 164.557 15.9304 164.633 16.071C164.71 16.2074 164.817 16.3033 164.953 16.3587C165.094 16.4141 165.256 16.4418 165.439 16.4418C165.567 16.4418 165.694 16.4311 165.822 16.4098C165.95 16.3842 166.048 16.3651 166.116 16.3523L166.545 18.3786C166.408 18.4212 166.216 18.4702 165.969 18.5256C165.722 18.5852 165.422 18.6214 165.068 18.6342C164.412 18.6598 163.836 18.5724 163.342 18.3722C162.852 18.1719 162.471 17.8608 162.198 17.4389C161.925 17.017 161.791 16.4844 161.795 15.8409V6.32955Z" fill="#121417"/>
<defs>
<clipPath id="clip0_2_8">
<rect width="16" height="16" fill="white" transform="translate(0 4)"/>
</clipPath>
</defs>
</svg>
